<svg enable-background="new 0 0 256 256" viewBox="0 0 256 256" xmlns="http://www.w3.org/2000/svg"><path d="m55.078 120.61c5.336-3.462 10.82-6.755 15.621-10.927 7.237-6.289 11.45-13.177 2.83-21.797 0 0-23.19-23.19-23.19-23.19-3.564-3.563-9.473-5.161-14.135-2.934-2.505 1.197-4.566 3.14-6.542 5.092-1.955 1.931-3.865 3.887-5.713 5.874-15.556 16.716-26.743 35.567-23.335 59.654 1.765 12.474 6.917 24.261 13.318 35.017 17.673 29.696 44.527 56.586 74.311 74.311 10.757 6.402 22.543 11.554 35.017 13.318 24.087 3.408 42.938-7.779 59.655-23.335 1.986-1.848 3.942-3.758 5.874-5.713 1.952-1.975 3.895-4.036 5.092-6.542 2.228-4.662.63-10.572-2.934-14.135 0 0-23.19-23.19-23.19-23.19-8.62-8.62-15.507-4.406-21.797 2.83-4.172 4.801-7.465 10.285-10.927 15.621-2.603 4.011-5.471 7.405-10.623 7.009-11.04-.85-21.693-10.244-29.772-17.009-10.924-9.147-21.081-19.328-30.176-30.299-6.562-7.915-15.567-18.276-16.393-29.034-.396-5.15 2.998-8.018 7.009-10.621z" fill="#d476e2"/><g fill="#b665c2"><path d="m193.881 212.439c-1.197 2.505-3.14 4.566-5.092 6.542-1.931 1.955-3.887 3.865-5.874 5.713-16.717 15.556-35.567 26.743-59.655 23.335-12.474-1.765-24.261-6.917-35.017-13.318-29.783-17.726-56.637-44.615-74.311-74.311-6.402-10.757-11.553-22.543-13.318-35.017-.242-1.712-.403-3.395-.501-5.056-.232 3.873-.089 7.884.501 12.056 1.765 12.474 6.917 24.261 13.318 35.017 17.673 29.696 44.527 56.586 74.311 74.311 10.756 6.402 22.543 11.554 35.017 13.318 24.087 3.408 42.938-7.779 59.655-23.335 1.986-1.848 3.942-3.758 5.874-5.713 1.952-1.975 3.895-4.036 5.092-6.542 1.233-2.58 1.29-5.541.495-8.275-.139.432-.297.86-.495 1.275z"/><path d="m36.204 61.762c-2.505 1.197-4.566 3.14-6.542 5.092-.333.329-.656.663-.987.993l41.921 41.921c.034-.029.069-.056.103-.085 7.237-6.289 11.45-13.177 2.83-21.797 0 0-23.19-23.19-23.19-23.19-3.563-3.563-9.473-5.161-14.135-2.934z"/><path d="m190.947 205.304s-23.19-23.19-23.19-23.19c-8.62-8.62-15.507-4.406-21.797 2.83-.029.034-.056.069-.085.103l41.921 41.921c.33-.33.664-.654.993-.987 1.952-1.975 3.895-4.036 5.092-6.542 2.228-4.662.63-10.572-2.934-14.135z"/><path d="m190.947 205.304s-23.19-23.19-23.19-23.19c-8.62-8.62-15.507-4.406-21.797 2.83-.029.034-.056.069-.085.103l41.921 41.921c.33-.33.664-.654.993-.987 1.952-1.975 3.895-4.036 5.092-6.542 2.228-4.662.63-10.572-2.934-14.135z"/></g><path d="m194.365 218.199c.073-.223.143-.447.2-.674.029-.115.05-.232.075-.348.047-.216.092-.433.125-.651.018-.117.031-.234.045-.352.027-.223.05-.446.064-.67.007-.111.011-.222.015-.333.008-.236.009-.472.003-.709-.003-.099-.006-.198-.011-.297-.013-.255-.034-.51-.063-.765-.009-.08-.017-.161-.027-.241-.037-.284-.085-.567-.141-.849-.01-.051-.018-.102-.029-.153-.07-.333-.152-.665-.247-.993-.139.432-.297.86-.495 1.275-1.197 2.505-3.14 4.566-5.092 6.542-1.495 1.513-3.011 2.99-4.539 4.442l3.545 3.545c.33-.33.664-.654.993-.987.732-.741 1.462-1.493 2.153-2.277 1.151-1.306 2.19-2.699 2.939-4.264.147-.309.276-.624.39-.942.039-.099.065-.2.097-.299z" fill="#94529e"/><path d="m48.565 134.409c-.412 1.127-.606 2.383-.495 3.823.826 10.758 9.831 21.118 16.393 29.034 9.095 10.971 19.252 21.152 30.176 30.299 8.08 6.765 18.732 16.159 29.772 17.009 5.151.396 8.02-2.997 10.623-7.009 3.462-5.336 6.755-10.82 10.927-15.621 6.289-7.237 13.177-11.45 21.797-2.83 0 0 23.19 23.19 23.19 23.19 1.592 1.592 2.787 3.652 3.429 5.86 1.422-4.423-.182-9.614-3.429-12.86 0 0-23.19-23.19-23.19-23.19-8.62-8.62-15.507-4.406-21.797 2.83-4.172 4.801-7.465 10.285-10.927 15.621-2.603 4.011-5.471 7.405-10.623 7.009-11.04-.85-21.693-10.244-29.772-17.009-10.924-9.147-21.081-19.328-30.176-30.299-5.913-7.133-13.789-16.253-15.898-25.857z" fill="#ea82fa"/><path d="m149.315 188.486c5.393-4.856 11.327-6.488 18.442.627 0 0 23.19 23.19 23.19 23.19 1.592 1.592 2.787 3.652 3.429 5.86.698-2.172.663-4.528.066-6.749-.015-.057-.029-.114-.045-.17-.059-.21-.127-.418-.196-.625-.03-.089-.059-.177-.09-.265-.066-.185-.137-.367-.211-.549-.044-.109-.09-.218-.137-.326-.071-.163-.145-.325-.223-.486-.059-.123-.121-.245-.184-.367-.075-.145-.151-.289-.231-.431-.075-.134-.155-.265-.234-.396-.077-.127-.154-.255-.235-.379-.094-.143-.192-.282-.291-.422-.076-.108-.151-.218-.23-.323-.118-.157-.243-.308-.367-.459-.068-.083-.133-.168-.203-.249-.198-.229-.404-.451-.616-.664 0 0-1.11-1.11-2.844-2.844-.743-.743-1.601-1.601-2.535-2.535-.311-.311-.631-.631-.958-.958-1.635-1.635-3.447-3.446-5.258-5.258-.362-.362-.725-.725-1.086-1.086-5.414-5.414-10.509-10.509-10.509-10.509-.808-.808-1.601-1.503-2.38-2.094-.26-.197-.517-.382-.774-.556-1.282-.87-2.525-1.456-3.734-1.796-5.56-1.565-10.389 2.075-14.91 7.276-.029.034-.056.069-.085.103z" fill="#d476e2"/><path d="m23.949 79.728c1.848-1.986 3.758-3.942 5.713-5.874 1.975-1.952 4.036-3.895 6.542-5.092 4.662-2.228 10.572-.63 14.135 2.934 0 0 23.19 23.19 23.19 23.19 2.096 2.096 3.428 4.09 4.148 5.997 1.472-3.925.658-8.192-4.148-12.997 0 0-23.19-23.19-23.19-23.19-3.563-3.563-9.473-5.161-14.135-2.934-2.505 1.197-4.566 3.14-6.542 5.092-1.955 1.931-3.865 3.887-5.713 5.874-14.45 15.528-25.122 32.901-23.836 54.599 1.108-18.494 10.974-33.777 23.836-47.599z" fill="#ea82fa"/><path d="m28.676 67.848 3.583 3.583c1.215-1.041 2.505-1.98 3.946-2.668 4.662-2.228 10.572-.63 14.135 2.934 0 0 23.19 23.19 23.19 23.19 2.096 2.096 3.428 4.09 4.148 5.997.088-.235.167-.472.239-.71.01-.034.019-.068.029-.102.059-.205.113-.41.159-.617.011-.05.021-.1.031-.15.04-.193.074-.386.103-.581.008-.057.016-.115.024-.172.024-.189.042-.38.054-.571.004-.06.009-.12.011-.18.009-.195.01-.391.007-.587-.001-.055 0-.11-.002-.165-.007-.214-.024-.429-.047-.646-.004-.037-.005-.075-.01-.112-.06-.516-.164-1.039-.316-1.568-.007-.025-.017-.05-.024-.075-.068-.231-.145-.464-.231-.698-.028-.075-.061-.151-.09-.226-.073-.185-.149-.371-.234-.558-.042-.094-.089-.188-.135-.282-.082-.17-.168-.341-.26-.513-.055-.103-.114-.206-.173-.31-.094-.165-.193-.331-.297-.498-.067-.108-.135-.216-.207-.324-.109-.165-.224-.331-.342-.498-.078-.11-.155-.219-.237-.329-.126-.17-.261-.341-.397-.512-.086-.108-.168-.215-.258-.323-.154-.186-.319-.374-.486-.561-.083-.094-.161-.187-.247-.281-.254-.278-.52-.557-.8-.838-.005-.004-.008-.009-.013-.013 0 0-2.265-2.265-5.379-5.378-1.557-1.557-3.326-3.326-5.131-5.131-.722-.722-1.449-1.449-2.171-2.171-1.444-1.444-2.865-2.865-4.173-4.173-.654-.654-1.28-1.28-1.865-1.865-2.637-2.637-4.471-4.471-4.471-4.471-.891-.891-1.928-1.659-3.056-2.275-1.974-1.078-4.225-1.691-6.452-1.683-1.591.006-3.17.328-4.627 1.024-2.192 1.048-4.044 2.666-5.796 4.362-.25.242-.499.486-.745.73-.334.33-.657.664-.987.995z" fill="#d476e2"/><path d="m230.271 0h-101.284c-14.21 0-25.729 11.519-25.729 25.729v65.469c0 14.21 11.519 25.729 25.729 25.729h54.389v27.125c0 4.28 5.175 6.423 8.201 3.397l30.522-30.522h8.172c14.21 0 25.729-11.519 25.729-25.729v-65.469c0-14.21-11.519-25.729-25.729-25.729z" fill="#69ebfc"/><path d="m128.987 0h101.284c14.21 0 25.729 11.519 25.729 25.729v8.392c0-14.21-11.519-25.729-25.729-25.729h-101.284c-14.21 0-25.729 11.519-25.729 25.729v-8.392c0-14.21 11.52-25.729 25.729-25.729z" fill="#a1f1fc"/><path d="m200.67 41.637h-69.41c-3.238 0-5.863-2.625-5.863-5.863 0-3.238 2.625-5.863 5.863-5.863h69.41c3.238 0 5.863 2.625 5.863 5.863 0 3.238-2.625 5.863-5.863 5.863z" fill="#ffefe4"/><path d="m227.999 54.412h-51.301-13.049-32.389c-3.238 0-5.863 2.625-5.863 5.863s2.625 5.863 5.863 5.863h32.389 13.049 51.301c3.238 0 5.863-2.625 5.863-5.863s-2.625-5.863-5.863-5.863z" fill="#ffefe4"/><path d="m227.999 78.913h-51.301-13.049-32.389c-3.238 0-5.863 2.625-5.863 5.863s2.625 5.863 5.863 5.863h32.389 13.049 51.301c3.238 0 5.863-2.625 5.863-5.863s-2.625-5.863-5.863-5.863z" fill="#ffefe4"/></svg>